<svg xmlns="http://www.w3.org/2000/svg" viewBox="0 0 29.09 29.09"><defs><style>.cls-1{fill:#264060;}.cls-2{fill:none;stroke:#264060;stroke-miterlimit:10;}</style></defs><title>question</title><g id="Layer_2" data-name="Layer 2"><g id="Layer_1-2" data-name="Layer 1"><path class="cls-1" d="M12.45,7.45A6.32,6.32,0,0,1,14,7.26a4.49,4.49,0,0,1,2.92.9,3,3,0,0,1,1.1,2.4,3.93,3.93,0,0,1-.49,2,13.11,13.11,0,0,1-1.48,2,15.31,15.31,0,0,0-1.48,2,4.84,4.84,0,0,0-.63,2.07l0,.28h-.8v-.36a5.39,5.39,0,0,1,.51-2.44A12.6,12.6,0,0,1,15.05,14a12.48,12.48,0,0,0,1.18-1.75,3.4,3.4,0,0,0,.38-1.6A2,2,0,0,0,15.89,9,3,3,0,0,0,14,8.42a5.93,5.93,0,0,0-3,.89V8A6.67,6.67,0,0,1,12.45,7.45Zm.12,15.32V20.89h1.84v1.88Z"/><circle class="cls-2" cx="14.54" cy="14.54" r="14.04"/></g></g></svg>